<svg height="512pt" viewBox="-1 0 512 512.0005" width="512pt" xmlns="http://www.w3.org/2000/svg" xmlns:xlink="http://www.w3.org/1999/xlink"><linearGradient id="lg1"><stop offset="0" stop-color="#7ac943"/><stop offset=".4564" stop-color="#5fc146"/><stop offset="1" stop-color="#39b54a"/></linearGradient><linearGradient id="linear0" gradientTransform="matrix(.566714 .828637 -.828637 .566714 75.725856 -742.158349)" gradientUnits="userSpaceOnUse" x1="875.9641" x2="1025.877" xlink:href="#lg1" y1="260.7617" y2="260.7617"/><linearGradient id="lg2"><stop offset="0" stop-color="#39b54a" stop-opacity="0"/><stop offset=".1072" stop-color="#2fab48" stop-opacity=".105882"/><stop offset=".4553" stop-color="#159043" stop-opacity=".454902"/><stop offset=".7642" stop-color="#06803f" stop-opacity=".764706"/><stop offset="1" stop-color="#007a3e"/></linearGradient><linearGradient id="linear1" gradientTransform="matrix(.566714 .828637 -.828637 .566714 75.725856 -742.158349)" gradientUnits="userSpaceOnUse" x1="1002.5482" x2="934.0547" xlink:href="#lg2" y1="261.4977" y2="261.4977"/><linearGradient id="lg3"><stop offset="0" stop-color="#39b54a"/><stop offset=".2394" stop-color="#32ad48"/><stop offset=".6031" stop-color="#1d9844"/><stop offset="1" stop-color="#007a3e"/></linearGradient><linearGradient id="linear2" gradientTransform="matrix(.566714 .828637 -.828637 .566714 75.725856 -742.158349)" gradientUnits="userSpaceOnUse" x1="921.8821" x2="974.1359" xlink:href="#lg3" y1="282.1566" y2="294.4943"/><linearGradient id="lg4"><stop offset="0" stop-color="#ffb211"/><stop offset="1" stop-color="#ff4b3e"/></linearGradient><linearGradient id="linear3" gradientTransform="matrix(.566714 .828637 -.828637 .566714 75.725856 -742.158349)" gradientUnits="userSpaceOnUse" x1="882.2131" x2="1074.9897" xlink:href="#lg4" y1="549.0854" y2="549.0854"/><linearGradient id="lg5"><stop offset="0" stop-color="#ff4b3e" stop-opacity="0"/><stop offset=".1177" stop-color="#f5493b" stop-opacity=".117647"/><stop offset=".3191" stop-color="#da4332" stop-opacity=".317647"/><stop offset=".5796" stop-color="#ad3923" stop-opacity=".580392"/><stop offset=".886" stop-color="#702c0f" stop-opacity=".886275"/><stop offset="1" stop-color="#582707"/></linearGradient><linearGradient id="linear4" gradientTransform="matrix(.566714 .828637 -.828637 .566714 311.295851 -115.547751)" gradientUnits="userSpaceOnUse" x1="336.2337" x2="265.8528" xlink:href="#lg5" y1="248.9194" y2="177.8683"/><linearGradient id="linear5" gradientTransform="matrix(.623034 .75786 -.775529 .63749 51.254264 -654.708448)" gradientUnits="userSpaceOnUse" x1="893.2613" x2="891.5735" xlink:href="#lg5" y1="464.9695" y2="491.1301"/><linearGradient id="linear6" gradientTransform="matrix(.63749 .775529 -.775529 .63749 38.263619 -669.900893)" gradientUnits="userSpaceOnUse" x1="865.6094" x2="863.924" xlink:href="#lg5" y1="601.7178" y2="627.8427"/><linearGradient id="linear7" gradientTransform="matrix(.856245 .792295 -.928627 1.00362 -189.588227 -512.044567)" gradientUnits="userSpaceOnUse" x1="747.4683" x2="745.9027" xlink:href="#lg5" y1="192.2791" y2="216.5462"/><linearGradient id="linear8" gradientTransform="matrix(.709371 .710475 -.710475 .709371 4.773197 -595.050107)" gradientUnits="userSpaceOnUse" x1="796.267" x2="794.5925" xlink:href="#lg5" y1="497.698" y2="523.6513"/><linearGradient id="linear9" gradientTransform="matrix(.566814 .567818 -.710475 .709371 114.040021 -484.677163)" gradientUnits="userSpaceOnUse" x1="777.882" x2="776.178" xlink:href="#lg5" y1="583.1661" y2="609.5765"/><linearGradient id="linear10" gradientTransform="matrix(.566814 .567818 -.710475 .709371 114.040021 -484.677163)" gradientUnits="userSpaceOnUse" x1="772.0496" x2="770.3456" xlink:href="#lg5" y1="654.4913" y2="680.9016"/><linearGradient id="linear11" gradientTransform="matrix(.897707 .899112 -.710475 .709371 -131.121843 -731.145229)" gradientUnits="userSpaceOnUse" x1="772.5715" x2="770.9349" xlink:href="#lg5" y1="551.5279" y2="576.8945"/><linearGradient id="linear12" gradientTransform="matrix(.861365 .515614 -.515614 .861365 -326.307085 -579.894204)" gradientUnits="userSpaceOnUse" x1="830.1267" x2="980.0391" xlink:href="#lg1" y1="251.6857" y2="251.6857"/><linearGradient id="linear13" gradientTransform="matrix(.861365 .515614 -.515614 .861365 -326.307085 -579.894204)" gradientUnits="userSpaceOnUse" x1="956.7108" x2="888.2184" xlink:href="#lg2" y1="252.4216" y2="252.4216"/><linearGradient id="linear14" gradientTransform="matrix(.861365 .515614 -.515614 .861365 -326.307085 -579.894204)" gradientUnits="userSpaceOnUse" x1="876.0446" x2="928.2993" xlink:href="#lg3" y1="273.0803" y2="285.4182"/><linearGradient id="linear15" gradientTransform="matrix(.861365 .515614 -.515614 .861365 -326.307085 -579.894204)" gradientUnits="userSpaceOnUse" x1="836.3793" x2="1029.1555" xlink:href="#lg4" y1="540.009" y2="540.009"/><linearGradient id="linear16" gradientTransform="matrix(.861365 .515614 -.515614 .861365 149.775613 -109.278361)" gradientUnits="userSpaceOnUse" x1="290.3971" x2="220.0163" xlink:href="#lg5" y1="239.8537" y2="168.8028"/><linearGradient id="linear17" gradientTransform="matrix(.882949 .427771 -.43771 .903429 -311.300566 -490.257862)" gradientUnits="userSpaceOnUse" x1="846.7242" x2="845.0364" xlink:href="#lg5" y1="452.2293" y2="478.3908"/><linearGradient id="linear18" gradientTransform="matrix(.903429 .43771 -.43771 .903429 -329.765495 -499.088959)" gradientUnits="userSpaceOnUse" x1="820.6603" x2="818.9747" xlink:href="#lg5" y1="589.2989" y2="615.4261"/><linearGradient id="linear19" gradientTransform="matrix(1.109133 .361512 -.423655 1.300078 -470.988949 -259.481191)" gradientUnits="userSpaceOnUse" x1="710.5966" x2="709.0311" xlink:href="#lg5" y1="178.0029" y2="202.2682"/><linearGradient id="linear20" gradientTransform="matrix(.941478 .348562 -.348562 .941478 -329.147681 -417.218352)" gradientUnits="userSpaceOnUse" x1="753.0562" x2="751.3816" xlink:href="#lg5" y1="481.018" y2="506.9732"/><linearGradient id="linear21" gradientTransform="matrix(.752339 .278588 -.348562 .941478 -183.578351 -362.883205)" gradientUnits="userSpaceOnUse" x1="723.71" x2="722.0059" xlink:href="#lg5" y1="566.7689" y2="593.1823"/><linearGradient id="linear22" gradientTransform="matrix(.752339 .278588 -.348562 .941478 -183.578351 -362.883205)" gradientUnits="userSpaceOnUse" x1="717.8755" x2="716.1714" xlink:href="#lg5" y1="638.0975" y2="664.5109"/><linearGradient id="linear23" gradientTransform="matrix(1.191555 .441123 -.348562 .941478 -508.749652 -483.971004)" gradientUnits="userSpaceOnUse" x1="737.8013" x2="736.1645" xlink:href="#lg5" y1="535.1215" y2="560.4913"/><path d="m414.023438 271.09375c-25.269532 27.992188-97.355469-.683594-115.84375-8.691406-2.796876-1.214844-4.363282-1.957032-4.363282-1.957032s-.179687-.921874-.457031-2.585937c-.167969-1.03125-.371094-2.355469-.589844-3.925781-2.308593-16.421875-6.085937-59.652344 13.988281-79.246094 25.074219-24.449219 25.949219 10.894531 25.949219 10.894531s12.097657-48.863281 41.488281-66.386719c29.019532-17.292968 19.292969 25.050782 19.042969 26.144532.488281-1.03125 22.804688-47.316406 52.730469-42.195313 30.265625 5.171875 2.601562 35.578125 2.601562 35.578125s39.773438-26.886718 57.070313-8.199218c2.359375 2.546874 3.5 5.128906 3.699219 7.683593.003906.03125.003906.0625.007812.09375.011719.207031.019532.414063.023438.617188.007812.242187 0 .472656-.007813.714843-.015625.234376-.035156.472657-.0625.703126-.054687.464843-.140625.9375-.253906 1.398437-.003906.035156-.019531.070313-.023437.105469-.054688.207031-.105469.414062-.167969.609375-.109375.382812-.242188.753906-.390625 1.136719-.128906.3125-.261719.628906-.410156.953124-.105469.230469-.222657.457032-.339844.683594-.125.230469-.246094.460938-.375.683594-.132813.226562-.265625.453125-.410156.683594-.277344.449218-.585938.894531-.910157 1.34375-.140625.195312-.28125.386718-.433593.578125-.1875.25-.386719.5-.59375.742187-.175782.222656-.367188.441406-.550782.660156-.191406.21875-.386718.429688-.578125.644532-.191406.21875-.398437.429687-.601562.644531-1.019531 1.058594-2.132813 2.101563-3.304688 3.105469-.402343.351562-.820312.695312-1.246093 1.042968-.308594.246094-.609376.484376-.925782.734376-.417968.320312-.832031.636718-1.257812.949218-.050782.046875-.097656.078125-.148438.113282-.15625.117187-.316406.238281-.476562.347656-9.589844 6.976562-20.867188 11.761718-21.359375 11.976562.726562-.035156 27.699219-1.261718 31.113281 17.035156 3.4375 18.402344-62.925781 18.066407-63.972656 18.058594.660156.3125 32.75 15.65625 22.484375 33.871094-10.296875 18.253906-76.792969 5.476562-77.816407 5.277344.902344.332031 39.300782 14.496094 27.671876 27.378906zm0 0" fill="url(#linear0)"/><path d="m414.023438 271.09375c-25.269532 27.992188-97.355469-.683594-115.84375-8.691406-2.796876-1.214844-4.363282-1.957032-4.363282-1.957032s-.179687-.921874-.457031-2.585937c50.675781-46.765625 108.394531-77.757813 154.273437-97.257813 25.164063-10.6875 46.769532-17.914062 61.707032-22.394531.003906.03125.003906.0625.007812.09375.011719.207031.019532.414063.023438.617188.007812.242187 0 .472656-.007813.714843-.015625.234376-.035156.472657-.0625.703126-.058593.46875-.140625.9375-.253906 1.398437-.003906.035156-.019531.070313-.023437.105469-.054688.207031-.105469.414062-.167969.609375-.109375.382812-.242188.753906-.390625 1.136719-.128906.3125-.261719.628906-.410156.953124-.105469.230469-.222657.457032-.339844.683594-.125.230469-.246094.460938-.375.683594-.132813.226562-.265625.453125-.410156.683594-.277344.449218-.585938.894531-.910157 1.34375-.140625.195312-.28125.386718-.433593.578125-.1875.25-.386719.5-.59375.742187-.175782.222656-.367188.441406-.550782.660156-.191406.21875-.386718.429688-.578125.644532-.191406.21875-.398437.429687-.601562.644531-1.019531 1.058594-2.132813 2.101563-3.304688 3.105469-.402343.351562-.820312.695312-1.246093 1.042968-.308594.246094-.609376.484376-.925782.734376-.417968.320312-.832031.636718-1.257812.949218-.050782.046875-.097656.078125-.148438.113282-.15625.117187-.316406.238281-.476562.347656-9.589844 6.976562-20.867188 11.761718-21.359375 11.976562.726562-.035156 27.699219-1.261718 31.113281 17.035156 3.4375 18.402344-62.925781 18.066407-63.972656 18.058594.660156.3125 32.75 15.65625 22.484375 33.871094-10.296875 18.253906-76.792969 5.476562-77.816407 5.277344.902344.332031 39.300782 14.496094 27.671876 27.378906zm0 0" fill="url(#linear1)"/><path d="m317.292969 253.066406c-2.898438-.953125-5.886719-.554687-8.132813 1.117188l-.03125.035156-6.300781 4.691406c-1.566406 1.136719-3.113281 2.304688-4.648437 3.492188-2.796876-1.214844-4.363282-1.957032-4.363282-1.957032s-.179687-.921874-.457031-2.585937c-.167969-1.03125-.371094-2.355469-.589844-3.925781 1.175781-1.097656 2.347657-2.183594 3.53125-3.273438 1.578125-1.394531 3.132813-2.804687 4.703125-4.207031 1.742188-1.5625 2.769532-3.847656 2.859375-6.410156 1.183594-32.800781 21.953125-49.796875 14.984375-37.265625-4.863281 8.726562-7.449218 25.09375-8.667968 35.757812 3.417968-2.867187 6.867187-5.695312 10.324218-8.507812 4.167969-3.269532 8.398438-6.457032 12.605469-9.683594 2.089844-1.628906 4.257813-3.136719 6.425781-4.664062l2.121094-1.496094c3.464844-2.445313 5.835938-6.25 6.601562-10.734375 6.210938-36.28125 29.027344-57.132813 20.210938-41.976563-6.4375 11.074219-11.246094 31.050782-13.816406 43.722656l4.554687-2.96875 6.699219-4.265624 3.351562-2.125c1.117188-.71875 2.238282-1.429688 3.390626-2.070313 1.992187-1.160156 5.292968-3.046875 8.5-4.890625 5.4375-3.125 9.667968-7.976562 12.238281-13.949219 15.636719-36.375 46.210937-53.890625 32.828125-40.105469-10.492188 10.800782-21.640625 32.542969-27.277344 44.339844l1.550781-.792968c2.351563-1.214844 4.734375-2.382813 7.109375-3.566407 2.386719-1.160156 4.714844-2.425781 7.175782-3.445312 4.863281-2.167969 9.746093-4.28125 14.636718-6.367188l3.675782-1.535156c1.226562-.511719 2.4375-1.046875 3.710937-1.480469 2.511719-.90625 5.007813-1.839844 7.535156-2.710937.335938-.117188.667969-.246094 1-.359375 1.164063-.414063 2.195313.648437 2.300781 1.699218.070313.546876-.117187 1.09375-.667968 1.425782-.304688.183594-.597656.363281-.894532.542968-2.257812 1.367188-4.523437 2.691407-6.792968 4.027344-1.140625.65625-2.246094 1.355469-3.359375 2.0625l-3.335938 2.109375c-4.453125 2.777344-8.925781 5.53125-13.414062 8.230469-4.472657 2.722656-8.824219 5.664062-13.261719 8.429688-.417969.253906-.832031.515624-1.25.773437 12.242188-.484375 39.082031-2.207031 54.082031-8.03125 18.625-7.25-12.28125 16.015625-54.402343 14.605469-6.035157-.199219-11.773438 1.410156-16.644532 4.503906-2.867187 1.824219-5.921875 3.765625-8.128906 5.1875-4.347656 2.894531-8.652344 5.859375-12.976562 8.785156l-6.414063 4.285156c11.328125 2.445313 36.667969 7.296876 51.589844 5.378907 18.023437-2.316407-12.613281 11.539062-50.3125 1.453125-5.03125-1.351563-10.105469-.636719-14.0625 2.105468l-.164063.113282-3.222656 2.234375c-1.074219.734375-2.105469 1.542969-3.175781 2.285156-4.253907 3.042969-8.472657 6.121094-12.757813 9.121094-3.0625 2.25-6.109375 4.527343-9.175781 6.769531 10.363281 2.945312 25.816406 6.617188 35.445313 5.554688 13.792968-1.511719-7.824219 10.078124-37.042969.511718zm0 0" fill="url(#linear2)"/><path d="m310.070312 249.796875c-.300781-.453125-.609374-.898437-.917968-1.34375-26.128906-37.355469-95.5625-26.152344-143.867188 16.738281-69.472656 61.695313-118.535156 114.816406-157.054687 156.46875-9.480469 10.253906-10.878907 25.128906-3.628907 35.800782.085938.125.171876.25.257813.375 7.3125 10.625 21.683594 14.71875 34.679687 9.597656 52.785157-20.792969 120.082032-47.253906 202.769532-89.628906 57.488281-29.464844 93.105468-90.113282 67.761718-128.007813zm0 0" fill="url(#linear3)"/><path d="m265.945312 363.082031c42.945313-31.957031 65.769532-80.917969 44.125-113.285156-.300781-.453125-.605468-.898437-.917968-1.34375-4.871094-6.960937-11.242188-12.234375-18.703125-15.929687zm0 0" fill="url(#linear4)"/><path d="m219.140625 294.703125c5.316406 3.488281 10.175781 7.421875 14.847656 11.550781 2.300781 2.089844 4.554688 4.230469 6.71875 6.460938 2.121094 2.257812 4.183594 4.574218 6.140625 6.984375 1.925782 2.433593 3.96875 4.808593 5.792969 7.371093 1.804687 2.574219 3.226563 5.4375 4.148437 8.574219.90625 3.144531 1.402344 6.527344 1.332032 10.09375-.09375 3.558594-.738282 7.351563-2.550782 11.097657l-.953124.175781c-.945313-3.113281-2.011719-5.886719-3.207032-8.585938-1.195312-2.695312-2.480468-5.296875-3.816406-7.886719-1.363281-2.578124-2.617188-5.21875-3.75-7.980468-1.160156-2.746094-2.375-5.503906-3.890625-8.082032-1.503906-2.582031-3.128906-5.105468-4.824219-7.585937-1.652344-2.511719-3.410156-4.960937-5.230468-7.375-3.597657-4.855469-7.464844-9.550781-11.519532-14.109375zm0 0" fill="url(#linear5)"/><path d="m94.816406 360.390625c5.410156 3.59375 10.359375 7.632813 15.128906 11.867187 2.347657 2.148438 4.648438 4.339844 6.859376 6.625 2.167968 2.3125 4.277343 4.683594 6.285156 7.148438 1.972656 2.488281 4.066406 4.917969 5.9375 7.535156 1.851562 2.628906 3.324218 5.542969 4.289062 8.734375.953125 3.199219 1.496094 6.636719 1.46875 10.246094-.050781 3.609375-.65625 7.445313-2.441406 11.222656l-.960938.171875c-.992187-3.167968-2.101562-5.992187-3.34375-8.742187-1.234374-2.742188-2.5625-5.394531-3.945312-8.035157-1.410156-2.628906-2.703125-5.320312-3.886719-8.132812-1.203125-2.796875-2.464843-5.605469-4.023437-8.230469-1.550782-2.636719-3.21875-5.210937-4.960938-7.742187-1.695312-2.566406-3.503906-5.070313-5.367187-7.535156-3.691407-4.960938-7.652344-9.765626-11.804688-14.425782zm0 0" fill="url(#linear6)"/><path d="m232.292969 251.816406c7.40625 2.933594 14.246093 6.515625 20.863281 10.375 3.265625 1.96875 6.476562 4.011719 9.570312 6.183594 3.046876 2.214844 6.019532 4.515625 8.867188 6.953125 2.804688 2.476563 5.765625 4.847656 8.453125 7.503906 2.660156 2.671875 4.847656 5.78125 6.398437 9.347657 1.539063 3.574218 2.558594 7.539062 2.851563 11.855468.257813 4.3125-.183594 9.042969-2.179687 13.996094l-1.238282.441406c-1.585937-3.527344-3.289062-6.621094-5.164062-9.589844-1.867188-2.960937-3.84375-5.792968-5.890625-8.597656-2.082031-2.78125-4.019531-5.667968-5.816407-8.726562-1.828124-3.035156-3.730468-6.070313-6.011718-8.8125-2.265625-2.757813-4.683594-5.410156-7.1875-7.996094-2.453125-2.632812-5.042969-5.167969-7.703125-7.640625-5.28125-4.992187-10.894531-9.734375-16.746094-14.257813zm0 0" fill="url(#linear7)"/><path d="m191.660156 309.371094c4.683594 1.871094 8.929688 4.203125 13 6.730468 2.003906 1.296876 3.960938 2.640626 5.832032 4.074219 1.835937 1.46875 3.609374 2.996094 5.289062 4.625 1.648438 1.652344 3.410156 3.230469 4.960938 5.007813 1.535156 1.796875 2.710937 3.898437 3.421874 6.332031.699219 2.441406 1.015626 5.164063.8125 8.144531-.226562 2.980469-.957031 6.261719-2.75 9.730469l-.871093.332031c-.730469-2.40625-1.585938-4.507812-2.566407-6.523437-.976562-2.011719-2.039062-3.925781-3.148437-5.824219-1.132813-1.882812-2.164063-3.835938-3.085937-5.914062-.941407-2.0625-1.9375-4.121094-3.207032-5.972657-1.261718-1.859375-2.632812-3.640625-4.070312-5.378906-1.398438-1.769531-2.898438-3.46875-4.449219-5.121094-3.074219-3.34375-6.390625-6.503906-9.886719-9.507812zm0 0" fill="url(#linear8)"/><path d="m120.535156 359.957031c3.992188 1.269531 7.539063 2.992188 10.90625 4.910157 1.652344.988281 3.261719 2.023437 4.777344 3.152343 1.480469 1.160157 2.902344 2.378907 4.226562 3.695313 1.292969 1.339844 2.695313 2.609375 3.886719 4.074218 1.175781 1.480469 1.992188 3.269532 2.355469 5.398438.347656 2.140625.324219 4.5625-.195312 7.265625-.539063 2.707031-1.566407 5.730469-3.570313 9.015625l-.816406.378906c-.386719-2.105468-.917969-3.925781-1.570313-5.652344-.648437-1.726562-1.382812-3.359374-2.164062-4.96875-.808594-1.59375-1.511719-3.265624-2.101563-5.054687-.613281-1.773437-1.273437-3.542969-2.203125-5.097656-.921875-1.5625-1.953125-3.046875-3.046875-4.484375-1.054687-1.46875-2.207031-2.867188-3.414062-4.21875-2.378907-2.738282-5-5.292969-7.800781-7.691406zm0 0" fill="url(#linear9)"/><path d="m66.554688 407.242188c3.992187 1.269531 7.539062 2.992187 10.90625 4.910156 1.652343.988281 3.261718 2.023437 4.777343 3.152344 1.480469 1.160156 2.902344 2.378906 4.226563 3.695312 1.292968 1.339844 2.695312 2.609375 3.886718 4.074219 1.175782 1.476562 1.992188 3.269531 2.355469 5.402343.351563 2.136719.328125 4.558594-.191406 7.265626-.542969 2.703124-1.570313 5.726562-3.570313 9.011718l-.820312.378906c-.386719-2.105468-.917969-3.925781-1.566406-5.652343-.648438-1.726563-1.382813-3.359375-2.167969-4.96875-.804687-1.59375-1.507813-3.265625-2.101563-5.054688-.613281-1.773437-1.269531-3.542969-2.203124-5.09375-.921876-1.566406-1.953126-3.050781-3.046876-4.484375-1.054687-1.472656-2.207031-2.871094-3.414062-4.222656-2.378906-2.738281-5-5.292969-7.800781-7.6875zm0 0" fill="url(#linear10)"/><path d="m140.566406 335.582031c5.59375 2.667969 10.761719 5.804688 15.761719 9.144531 2.46875 1.695313 4.890625 3.449219 7.230469 5.289063 2.300781 1.878906 4.546875 3.816406 6.695312 5.851563 2.121094 2.0625 4.355469 4.054687 6.382813 6.25 2.007812 2.207031 3.660156 4.726562 4.828125 7.558593 1.160156 2.84375 1.925781 5.957031 2.140625 9.304688.191406 3.339843-.148438 6.964843-1.660157 10.675781l-.941406.273438c-1.191406-2.808594-2.476562-5.285157-3.890625-7.679688-1.410156-2.386719-2.902343-4.679688-4.445312-6.953125-1.570313-2.261719-3.03125-4.59375-4.386719-7.050781-1.382812-2.441406-2.816406-4.886719-4.539062-7.128906-1.707032-2.25-3.53125-4.425782-5.425782-6.558594-1.851562-2.167969-3.804687-4.265625-5.816406-6.316406-3.984375-4.140626-8.222656-8.105469-12.644531-11.917969zm0 0" fill="url(#linear11)"/><path d="m370.003906 167.5c-11.246094 35.992188-88.714844 40.101562-108.855468 40.5625-3.050782.066406-4.78125.050781-4.78125.050781s-.550782-.761719-1.5-2.160156c-.585938-.867187-1.324219-1.984375-2.179688-3.320313-8.964844-13.949218-30.480469-51.636718-20.441406-77.828124 12.550781-32.699219 28.128906-.960938 28.128906-.960938s-9.453125-49.441406 9.914062-77.65625c19.121094-27.84375 28.003907 14.683594 28.230469 15.785156.015625-1.144531.921875-52.519531 30.246094-60.382812 29.65625-7.964844 17.246094 31.226562 17.246094 31.226562s24.878906-41.0625 48.40625-31.324218c3.207031 1.332031 5.328125 3.199218 6.574219 5.433593.015624.027344.03125.058594.046874.085938.097657.179687.191407.367187.277344.550781.109375.214844.199219.425781.292969.648438.082031.222656.164063.445312.238281.667968.144532.445313.265625.910156.355469 1.375.011719.035156.011719.074219.023437.109375.035157.207031.074219.417969.101563.621094.058594.390625.09375.785156.117187 1.195313.015626.335937.027344.679687.03125 1.039062 0 .25-.011718.507812-.023437.761719-.019531.261719-.035156.523437-.058594.78125-.023437.257812-.050781.519531-.082031.792969-.066406.519531-.160156 1.054687-.269531 1.597656-.042969.238281-.09375.46875-.148438.707031-.066406.308594-.144531.617187-.226562.921875-.070313.277344-.152344.554688-.226563.828125-.082031.28125-.171875.554687-.257812.828125-.082032.28125-.183594.558594-.277344.835938-.480469 1.386718-1.058594 2.804687-1.703125 4.207031-.214844.484375-.453125.972656-.691406 1.464843-.179688.351563-.355469.695313-.535157 1.054688-.246093.464844-.492187.925781-.746093 1.390625-.027344.0625-.054688.109375-.085938.164063-.09375.171874-.1875.347656-.285156.511718-5.796875 10.351563-14.035156 19.414063-14.394531 19.816406.644531-.335937 24.632812-12.730468 35.386718 2.457032 10.820313 15.277344-49.601562 42.734375-50.550781 43.167968.730469.003907 36.292969.519532 34.589844 21.359376-1.714844 20.886718-67.460937 37.097656-68.472656 37.34375.957031-.082032 41.757812-3.273438 36.585937 13.289062zm0 0" fill="url(#linear12)"/><path d="m370.003906 167.5c-11.246094 35.992188-88.714844 40.101562-108.855468 40.5625-3.050782.066406-4.78125.050781-4.78125.050781s-.550782-.761719-1.5-2.160156c26.46875-63.675781 65.929687-115.96875 99.445312-152.871094 18.386719-20.234375 34.984375-35.835937 46.679688-46.15625.015624.027344.03125.058594.046874.085938.097657.179687.191407.367187.277344.550781.109375.214844.199219.425781.292969.648438.082031.222656.164063.445312.238281.667968.140625.449219.265625.910156.355469 1.375.011719.035156.011719.074219.023437.109375.035157.207031.074219.417969.101563.621094.058594.390625.09375.785156.117187 1.195313.015626.335937.027344.679687.03125 1.039062 0 .25-.011718.507812-.023437.761719-.019531.261719-.035156.523437-.058594.78125-.023437.257812-.050781.519531-.082031.792969-.066406.519531-.160156 1.054687-.269531 1.597656-.042969.238281-.09375.46875-.148438.707031-.066406.308594-.144531.617187-.226562.921875-.070313.277344-.152344.554688-.226563.828125-.082031.28125-.171875.554687-.257812.828125-.082032.28125-.183594.558594-.277344.835938-.480469 1.386718-1.058594 2.804687-1.703125 4.207031-.214844.484375-.453125.972656-.691406 1.464843-.179688.351563-.355469.695313-.535157 1.054688-.246093.464844-.492187.925781-.746093 1.390625-.027344.0625-.054688.109375-.085938.164063-.09375.171874-.1875.347656-.285156.511718-5.796875 10.351563-14.035156 19.414063-14.394531 19.816406.644531-.335937 24.632812-12.730468 35.386718 2.457032 10.820313 15.277344-49.601562 42.734375-50.550781 43.167968.730469.003907 36.292969.519532 34.589844 21.359376-1.714844 20.886718-67.460937 37.097656-68.472656 37.34375.957031-.082032 41.757812-3.273438 36.585937 13.289062zm0 0" fill="url(#linear13)"/><path d="m274.601562 191.585938c-3.035156.347656-5.578124 1.960937-6.917968 4.417968l-.019532.046875-3.757812 6.894531c-.945312 1.691407-1.863281 3.398438-2.761719 5.117188-3.046875.066406-4.777343.050781-4.777343.050781s-.554688-.761719-1.5-2.160156c-.585938-.867187-1.324219-1.980469-2.179688-3.320313.609375-1.488281 1.222656-2.964843 1.839844-4.449218.847656-1.921875 1.671875-3.855469 2.511718-5.785156.929688-2.152344.90625-4.65625-.085937-7.019532-12.644531-30.289062-.886719-54.414062-1.976563-40.117187-.769531 9.960937 3.730469 25.910156 7.085938 36.105469 1.90625-4.035157 3.851562-8.046876 5.8125-12.046876 2.421875-4.710937 4.933594-9.378906 7.40625-14.066406 1.210938-2.355468 2.554688-4.632812 3.882812-6.925781l1.300782-2.246094c2.121094-3.671875 2.683594-8.117187 1.503906-12.511719-9.535156-35.554687 2.46875-64.035156.800781-46.582031-1.21875 12.75 2.773438 32.910157 5.738281 45.496094l2.894532-4.605469 4.300781-6.675781 2.15625-3.332031c.714844-1.117188 1.433594-2.230469 2.214844-3.300782 1.320312-1.886718 3.53125-4.980468 5.671875-7.996093 3.632812-5.109375 5.449218-11.289063 5.28125-17.789063-1.011719-39.578125 19.433594-68.28125 13.042968-50.160156-5.011718 14.199219-6.042968 38.613281-6.230468 51.683594l1.082031-1.367188c1.625-2.089844 3.300781-4.144531 4.960937-6.214844 1.683594-2.050781 3.269532-4.175781 5.078126-6.132812 3.511718-4.003906 7.0625-7.964844 10.628906-11.902344l2.699218-2.933594c.902344-.976562 1.777344-1.972656 2.75-2.894531 1.902344-1.875 3.78125-3.765625 5.710938-5.617187.257812-.246094.503906-.5.757812-.742188.886719-.863281 2.265626-.328125 2.800782.582032.292968.464843.351562 1.042968-.011719 1.574218-.199219.292969-.390625.578125-.585937.867188-1.480469 2.183594-2.984376 4.335937-4.484376 6.5-.757812 1.070312-1.472656 2.167968-2.1875 3.277344l-2.144531 3.3125c-2.886719 4.386718-5.792969 8.757812-8.742187 13.085937-2.925782 4.34375-5.648438 8.835937-8.519532 13.203125-.277343.40625-.542968.816406-.8125 1.226562 10.917969-5.5625 34.574219-18.351562 45.761719-29.917968 13.882813-14.375-4.457031 19.6875-43.300781 36.023437-5.566406 2.34375-10.109375 6.207031-13.238281 11.054688-1.839844 2.855469-3.800781 5.898437-5.210938 8.113281-2.738281 4.445312-5.410156 8.941406-8.113281 13.40625l-4.03125 6.574219c11.308594-2.515625 36.355469-8.710938 49.105469-16.691407 15.40625-9.644531-6.628907 15.757813-45.089844 22.363282-5.132813.878906-9.445313 3.652344-11.894531 7.792968l-.101563.175782-1.988281 3.375c-.671875 1.117187-1.269531 2.285156-1.929688 3.40625-2.589843 4.542968-5.136718 9.105468-7.777343 13.621094-1.839844 3.324218-3.652344 6.667968-5.503907 9.988281 10.648438-1.660157 26.21875-4.789063 34.523438-9.78125 11.898438-7.152344-2.890625 12.417969-33.429688 15.949219zm0 0" fill="url(#linear14)"/><path d="m266.671875 191.640625c-.460937-.285156-.925781-.5625-1.394531-.835937-39.359375-23-97.738282 16.21875-123.671875 75.382812-37.296875 85.097656-59.640625 153.871094-77.203125 207.820312-4.324219 13.277344.628906 27.375 11.679687 34.03125.128907.078126.257813.160157.390625.234376 11.085938 6.59375 25.851563 4.300781 35.511719-5.785157 39.246094-40.96875 89.304687-93.152343 146.683594-166.230469 39.898437-50.8125 46.875-120.800781 8.003906-144.617187zm0 0" fill="url(#linear15)"/><path d="m273.980469 312.996094c25.640625-46.988282 25.894531-101.011719-7.304688-121.355469-.464843-.285156-.929687-.5625-1.398437-.835937-7.332032-4.285157-15.328125-6.410157-23.648438-6.648438zm0 0" fill="url(#linear16)"/><path d="m202.867188 270.464844c6.289062.945312 12.34375 2.484375 18.316406 4.28125 2.964844.933594 5.90625 1.9375 8.804687 3.054687 2.871094 1.167969 5.710938 2.40625 8.5 3.777344 2.765625 1.40625 5.617188 2.707031 8.347657 4.273437 2.714843 1.582032 5.203124 3.585938 7.351562 6.050782 2.136719 2.480468 4.003906 5.34375 5.433594 8.613281 1.402344 3.269531 2.40625 6.984375 2.324218 11.144531l-.792968.558594c-2.160156-2.429688-4.289063-4.503906-6.507813-6.457031-2.207031-1.949219-4.464843-3.773438-6.761719-5.566407-2.320312-1.773437-4.5625-3.648437-6.746093-5.683593-2.203125-2.007813-4.460938-4.003907-6.914063-5.710938-2.445312-1.714843-4.976562-3.328125-7.554687-4.871093-2.550781-1.59375-5.171875-3.082032-7.832031-4.511719-5.300782-2.902344-10.777344-5.554688-16.371094-7.996094zm0 0" fill="url(#linear17)"/><path d="m117.417969 382.136719c6.417969 1 12.605469 2.597656 18.703125 4.449219 3.03125.96875 6.042968 2 9.003906 3.148437 2.9375 1.191406 5.84375 2.460937 8.699219 3.863281 2.832031 1.433594 5.75 2.765625 8.546875 4.359375 2.78125 1.613281 5.335937 3.648438 7.546875 6.140625 2.207031 2.507813 4.136719 5.402344 5.621093 8.695313 1.460938 3.296875 2.519532 7.035156 2.476563 11.214843l-.800781.554688c-2.222656-2.460938-4.414063-4.5625-6.691406-6.542969-2.273438-1.972656-4.589844-3.828125-6.949219-5.648437-2.378907-1.796875-4.679688-3.699219-6.929688-5.761719-2.261719-2.035156-4.582031-4.058594-7.097656-5.792969-2.511719-1.746094-5.105469-3.386718-7.746094-4.957031-2.613281-1.621094-5.300781-3.136719-8.027343-4.597656-5.429688-2.960938-11.035157-5.667969-16.757813-8.167969zm0 0" fill="url(#linear18)"/><path d="m196.875 226.007812c7.953125-.429687 15.664062-.039062 23.285156.695313 3.792969.425781 7.5625.9375 11.28125 1.613281 3.695313.738282 7.359375 1.582032 10.964844 2.609375 3.582031 1.074219 7.261719 1.992188 10.8125 3.277344 3.539062 1.316406 6.824219 3.226563 9.726562 5.8125 2.890626 2.605469 5.476563 5.78125 7.546876 9.578125 2.039062 3.808594 3.617187 8.289062 3.875 13.621094l-.941407.921875c-2.910156-2.542969-5.753906-4.636719-8.699219-6.550781-2.933593-1.910157-5.914062-3.652344-8.949218-5.34375-3.050782-1.65625-6.019532-3.46875-8.933594-5.496094-2.929688-1.988282-5.925781-3.953125-9.144531-5.488282-3.210938-1.558593-6.515625-2.953124-9.875-4.253906-3.328125-1.367187-6.738281-2.585937-10.191407-3.71875-6.886718-2.328125-13.96875-4.285156-21.175781-5.949218zm0 0" fill="url(#linear19)"/><path d="m184.042969 295.28125c5.035156-.257812 9.867187.082031 14.621093.679688 2.363282.335937 4.703126.738281 7.003907 1.257812 2.28125.570312 4.53125 1.214844 6.738281 1.988281 2.1875.8125 4.449219 1.511719 6.601562 2.476563 2.144532.988281 4.09375 2.40625 5.753907 4.320312 1.65625 1.925782 3.082031 4.265625 4.144531 7.054688 1.039062 2.800781 1.75 6.089844 1.574219 9.988281l-.652344.667969c-1.671875-1.878906-3.332031-3.429688-5.0625-4.851563-1.726563-1.417969-3.492187-2.714843-5.296875-3.972656-1.816406-1.234375-3.570312-2.582031-5.273438-4.082031-1.71875-1.476563-3.484374-2.933594-5.414062-4.082032-1.921875-1.160156-3.914062-2.207031-5.945312-3.179687-2.011719-1.027344-4.082032-1.941406-6.183594-2.796875-4.1875-1.75-8.523438-3.234375-12.957032-4.5zm0 0" fill="url(#linear20)"/><path d="m140.597656 370.984375c4.15625-.515625 8.101563-.4375 11.960938-.105469 1.914062.207032 3.808594.476563 5.65625.867188 1.832031.433594 3.632812.945312 5.386718 1.585937 1.734376.679688 3.539063 1.246094 5.234376 2.078125 1.683593.851563 3.175781 2.136719 4.394531 3.917969 1.214843 1.796875 2.207031 4.007813 2.867187 6.683594.640625 2.683593.96875 5.855469.527344 9.679687l-.585938.683594c-1.230468-1.75-2.476562-3.179688-3.789062-4.476562-1.3125-1.296876-2.664062-2.472657-4.046875-3.605469-1.398437-1.113281-2.738281-2.335938-4.023437-3.714844-1.296876-1.351563-2.636719-2.683594-4.132813-3.707031-1.492187-1.03125-3.046875-1.949219-4.644531-2.796875-1.574219-.894531-3.203125-1.683594-4.867188-2.40625-3.304687-1.492188-6.753906-2.714844-10.300781-3.722657zm0 0" fill="url(#linear21)"/><path d="m111.347656 436.511719c4.15625-.515625 8.097656-.4375 11.960938-.105469 1.914062.207031 3.808594.480469 5.65625.867188 1.832031.433593 3.632812.945312 5.386718 1.589843 1.734376.675781 3.539063 1.242188 5.234376 2.074219 1.683593.851562 3.175781 2.136719 4.398437 3.921875 1.210937 1.792969 2.203125 4.003906 2.863281 6.679687.640625 2.683594.972656 5.859376.527344 9.679688l-.585938.6875c-1.230468-1.75-2.472656-3.183594-3.789062-4.480469-1.308594-1.292969-2.660156-2.46875-4.046875-3.605469-1.398437-1.109374-2.734375-2.335937-4.023437-3.714843-1.296876-1.351563-2.632813-2.683594-4.132813-3.703125-1.488281-1.035156-3.046875-1.953125-4.640625-2.800782-1.574219-.894531-3.207031-1.679687-4.867188-2.40625-3.308593-1.492187-6.757812-2.714843-10.300781-3.71875zm0 0" fill="url(#linear22)"/><path d="m148.597656 340.464844c6.195313.082031 12.203125.769531 18.140625 1.710937 2.949219.511719 5.886719 1.085938 8.78125 1.78125 2.875.742188 5.722657 1.5625 8.527344 2.511719 2.785156.988281 5.652344 1.863281 8.410156 3.007812 2.75 1.167969 5.300781 2.761719 7.550781 4.847657 2.242188 2.097656 4.238282 4.605469 5.835938 7.554687 1.570312 2.957032 2.777344 6.390625 2.953125 10.394532l-.734375.640624c-2.257812-2.054687-4.464844-3.765624-6.75-5.347656-2.277344-1.582031-4.59375-3.039062-6.945312-4.457031-2.371094-1.398437-4.675782-2.90625-6.9375-4.570313-2.273438-1.640624-4.597657-3.261718-7.097657-4.578124-2.496093-1.328126-5.0625-2.542969-7.671875-3.6875-2.589844-1.195313-5.242187-2.28125-7.925781-3.304688-5.355469-2.09375-10.863281-3.921875-16.46875-5.53125zm0 0" fill="url(#linear23)"/></svg>