<svg height="512pt" viewBox="-21 0 512 512.00131" width="512pt" xmlns="http://www.w3.org/2000/svg"><path d="m254.539062 133.367188h-40.144531c-8.285156 0-15-6.714844-15-15 0-26.875-6.898437-45.316407-12.6875-56.054688-6.523437-12.101562-5.796875-27.847656 1.8125-39.171875l6.550781-9.753906c5.875-8.746094 15.210938-13.738281 24.953126-13.3671878 9.894531.3789068 18.972656 6.2265628 24.289062 15.6328128 11.507812 20.359375 25.226562 54.710937 25.226562 102.714844 0 8.285156-6.714843 15-15 15zm0 0" fill="#d88955"/><path d="m244.3125 15.652344c-2.394531-4.238282-5.558594-7.746094-9.214844-10.363282v128.078126h19.441406c8.285157 0 15-6.714844 15-15 0-48.003907-13.71875-82.355469-25.226562-102.714844zm0 0" fill="#ae6e3f"/><path d="m330.308594 512c-23.1875 0-44.667969-8.355469-63.835938-24.835938-16.488281-14.175781-30.90625-34.117187-42.859375-59.269531-21.097656-44.382812-33.191406-102.207031-33.191406-158.644531 0-52.261719 13.765625-92.664062 40.917969-120.082031 24.175781-24.414063 58.394531-37.316407 98.96875-37.316407 40.570312 0 74.792968 12.902344 98.96875 37.316407 27.152344 27.417969 40.921875 67.820312 40.921875 120.082031 0 56.4375-12.097657 114.261719-33.191407 158.644531-11.957031 25.152344-26.375 45.09375-42.863281 59.269531-19.171875 16.480469-40.648437 24.835938-63.835937 24.835938zm0 0" fill="#f87d00"/><path d="m139.890625 512c-23.1875 0-44.664063-8.355469-63.835937-24.835938-16.488282-14.175781-30.90625-34.117187-42.859376-59.269531-21.097656-44.382812-33.195312-102.207031-33.195312-158.644531 0-52.261719 13.769531-92.664062 40.921875-120.082031 24.175781-24.414063 58.394531-37.316407 98.96875-37.316407 40.570313 0 74.792969 12.902344 98.96875 37.316407 27.152344 27.417969 40.917969 67.820312 40.917969 120.082031 0 56.4375-12.097656 114.261719-33.191406 158.644531-11.953126 25.152344-26.371094 45.09375-42.859376 59.269531-19.171874 16.480469-40.648437 24.835938-63.835937 24.835938zm0 0" fill="#ff9200"/><path d="m235.097656 512c-35.535156 0-68.382812-21.808594-92.496094-61.40625-22.695312-37.273438-35.191406-86.519531-35.191406-138.667969 0-52.148437 12.496094-101.394531 35.191406-138.667969 24.113282-39.597656 56.960938-61.40625 92.496094-61.40625 35.539063 0 68.386719 21.808594 92.496094 61.40625 22.695312 37.273438 35.195312 86.519532 35.195312 138.667969 0 52.148438-12.5 101.394531-35.195312 138.667969-24.109375 39.597656-56.957031 61.40625-92.496094 61.40625zm0 0" fill="#ffb74b"/><path d="m327.59375 173.257812c-24.109375-39.597656-56.957031-61.40625-92.496094-61.40625v400.148438c35.539063 0 68.386719-21.808594 92.496094-61.40625 22.695312-37.273438 35.195312-86.519531 35.195312-138.667969 0-52.148437-12.5-101.394531-35.195312-138.667969zm0 0" fill="#ffa100"/></svg>