<svg height="512pt" viewBox="0 -35 512 512" width="512pt" xmlns="http://www.w3.org/2000/svg"><path d="m373.707031 83.269531-190.597656-3.007812c-105.867187 3.6875-183.109375 24.371093-183.109375 140.429687 0 141.382813 114.617188 220.6875 256 220.6875s256-79.304687 256-220.6875c0-98.933594-56.152344-128.539062-138.292969-137.421875zm0 0" fill="#dd352e"/><path d="m256 406.070312c-4.871094 0-8.828125-3.949218-8.828125-8.828124 0-4.882813 3.957031-8.828126 8.828125-8.828126 32.699219 0 142.769531-6.664062 186.332031-92.425781 2.207031-4.332031 7.523438-6.0625 11.875-3.867187 4.34375 2.207031 6.070313 7.53125 3.867188 11.875-32.480469 63.910156-108.015625 102.074218-202.074219 102.074218zm0 0" fill="#ed6969"/><path d="m462.980469 273.664062c-.671875 0-1.351563-.078124-2.03125-.230468-4.75-1.121094-7.6875-5.871094-6.566407-10.617188 3.082032-13.128906 4.652344-27.296875 4.652344-42.125 0-4.882812 3.953125-8.828125 8.828125-8.828125 4.871094 0 8.828125 3.945313 8.828125 8.828125 0 16.1875-1.722656 31.722656-5.128906 46.167969-.953125 4.058594-4.582031 6.804687-8.582031 6.804687zm0 0" fill="#ed6969"/><path d="m263.363281 5.851562-16.191406 64.769532s-70.621094-17.65625-97.101563-70.621094c0 0-7.867187 47.183594 43.199219 89.589844 3.628907 3.011718 2.445313 8.777344-2.0625 10.125-20.683593 6.199218-58.800781 26.050781-32.308593 85.664062 0 0 26.480468-61.792968 97.101562-61.792968 0 0 61.792969 8.828124 70.621094 79.449218 0 0 46.890625-46.894531-6.390625-89.203125-3.839844-3.054687-2.269531-9.199219 2.53125-10.222656 25.1875-5.339844 76.675781-21.867187 83.308593-68.300781 0 0-114.761718 52.96875-123.585937 44.140625l15.5625-70.046875c1.074219-4.820313-2.597656-9.402344-7.539063-9.402344h-19.640624c-3.550782 0-6.640626 2.410156-7.503907 5.851562zm0 0" fill="#23a24d"/></svg>